<svg width="18" height="18" viewBox="0 0 18 18" fill="none" xmlns="http://www.w3.org/2000/svg">
<path d="M9 10.5L8.43431 11.0657L9 11.6314L9.56569 11.0657L9 10.5ZM9.8 3.75C9.8 3.30817 9.44183 2.95 9 2.95C8.55817 2.95 8.2 3.30817 8.2 3.75L9 3.75L9.8 3.75ZM5.25 6.75L4.68431 7.31569L8.43431 11.0657L9 10.5L9.56569 9.93431L5.81569 6.18431L5.25 6.75ZM9 10.5L9.56569 11.0657L13.3157 7.31569L12.75 6.75L12.1843 6.18432L8.43431 9.93431L9 10.5ZM9 10.5L9.8 10.5L9.8 3.75L9 3.75L8.2 3.75L8.2 10.5L9 10.5Z" fill="#989898"/>
<path d="M3.75 12L3.75 12.75C3.75 13.5784 4.42157 14.25 5.25 14.25L12.75 14.25C13.5784 14.25 14.25 13.5784 14.25 12.75V12" stroke="#989898" stroke-width="1.6"/>
</svg>
